<svg width="1635" height="607" viewBox="0 0 1635 607" fill="none" xmlns="http://www.w3.org/2000/svg">
<rect width="1635" height="607" fill="#1E1E1E"/>
<rect width="1635" height="607" fill="white"/>
<path d="M950 422C966.333 407 1016.8 386 1088 422C1177 467 1189.5 470.5 1214.5 492C1239.5 513.5 1272.5 539 1358.5 492C1427.3 454.4 1550.83 352 1604 305.5C1613.33 252.167 1626.4 139.3 1604 114.5C1576 83.5 1582 49 1565 38C1551.4 29.2 1510.33 34.3333 1491.5 38C1475.67 42.3333 1441.3 55.3 1430.5 72.5C1417 94 1389 100.5 1388 107.5C1387.2 113.1 1362.67 136.5 1350.5 147.5C1341.83 162.333 1325.8 192.8 1331 196C1336.2 199.2 1337.5 202 1337.5 203M1632 234L1589.5 218.5C1588.33 218.5 1584.6 218.5 1579 218.5C1573.4 218.5 1556.33 228.833 1548.5 234L1530.5 252.5C1523.33 255.667 1508.8 263.4 1508 269C1507 276 1467 273.5 1466 284C1465 294.5 1385 306 1381 322C1377.8 334.8 1355.33 353 1344.5 360.5" stroke="black" stroke-width="5"/>
<path d="M1038.5 332.5L1029 337.5" stroke="black"/>
<path d="M53.5 157.5C61.5 205.5 96.8333 221.5 113.5 223.5L287 157.5L349 109.5M103.5 279.5L139 303.5L369 235.5L391 224H382.5" stroke="black" stroke-width="5"/>
<path d="M124 345.5C142.8 356.7 180.167 355.833 196.5 354H229C239.333 355 266.2 354.7 291 345.5C322 334 353 307 377 310.5C401 314 431.5 325 431 339.5C430.6 351.1 421.833 371 417.5 379.5C413.667 382 404.3 386.5 397.5 384.5C390.7 382.5 389.333 383.667 389.5 384.5M62.5 368.5C66.3333 372.167 76 379.5 84 379.5C92 379.5 133.667 390.833 153.5 396.5L272.5 420.5L417.5 447C429.333 448.833 466.7 449.3 521.5 436.5C590 420.5 613 420 633 354C653 288 675.5 251 727.5 236C779.5 221 860.5 144 872 147C881.2 149.4 890.5 145.667 894 143.5H898.5M679 420.5C684 410.167 699.6 388.5 722 384.5C750 379.5 812 339.5 845.5 339.5C879 339.5 950 330 994 310.5C1029.2 294.9 1049 304 1054.5 310.5L1038 333" stroke="black" stroke-width="5"/>
<path d="M755.5 490.5C768.5 481.333 800.4 462 824 458C853.5 453 917 409 950.5 422" stroke="black" stroke-width="5"/>
</svg>
